<svg xmlns="http://www.w3.org/2000/svg" xmlns:xlink="http://www.w3.org/1999/xlink" viewBox="0 0 336.62 235.63"><defs><style>.cls-1{isolation:isolate;}.cls-2{fill:url(#Névtelen_színátmenet_194);}.cls-3,.cls-7{opacity:0.7;}.cls-3{fill:url(#Névtelen_színátmenet_88);}.cls-4{fill:url(#Névtelen_színátmenet_250);}.cls-5{opacity:0.3;fill:url(#Névtelen_színátmenet_93);}.cls-6{fill:url(#Névtelen_színátmenet_218);}.cls-7{fill:url(#Névtelen_színátmenet_234);}.cls-8{fill:url(#Névtelen_színátmenet_200);}.cls-9{fill:url(#Névtelen_színátmenet_203);}.cls-10,.cls-21{fill:#1c133c;}.cls-11{opacity:0.2;fill:url(#Névtelen_színátmenet_136);}.cls-12,.cls-19{fill:#2e2868;}.cls-13,.cls-20{fill:#373068;}.cls-14{fill:#251647;}.cls-15{fill:#573a81;}.cls-16{fill:#8878b6;}.cls-17{fill:url(#Névtelen_színátmenet_218-2);}.cls-18{fill:url(#Névtelen_színátmenet_218-3);}.cls-19,.cls-20,.cls-21{fill-rule:evenodd;}.cls-22{fill:#8361a6;}.cls-23{fill:url(#Névtelen_színátmenet_228);}.cls-24{fill:url(#Névtelen_színátmenet_218-4);}.cls-25{fill:url(#Névtelen_színátmenet_218-5);}.cls-26{fill:url(#Névtelen_színátmenet_228-2);}.cls-27{fill:url(#Névtelen_színátmenet_232);}.cls-28,.cls-30,.cls-31,.cls-32,.cls-33{opacity:0.21;}.cls-28{fill:url(#linear-gradient);}.cls-29,.cls-51{opacity:0.4;}.cls-29{fill:url(#linear-gradient-2);}.cls-30{fill:url(#linear-gradient-3);}.cls-31{fill:url(#linear-gradient-4);}.cls-32{mix-blend-mode:overlay;fill:url(#linear-gradient-5);}.cls-33{fill:url(#linear-gradient-6);}.cls-34,.cls-37{fill:#fff;}.cls-35{fill:#878787;}.cls-36{fill:url(#Névtelen_színátmenet_506);}.cls-37{opacity:0.8;}.cls-38{fill:#b2b2b2;}.cls-39{fill:#dadada;}.cls-40{fill:#dd5227;}.cls-41,.cls-48{opacity:0.5;}.cls-42{fill:#fedd94;}.cls-43,.cls-44{opacity:0.9;}.cls-43{fill:url(#Névtelen_színátmenet_249);}.cls-44{fill:url(#Névtelen_színátmenet_248);}.cls-45{fill:url(#Névtelen_színátmenet_506-2);}.cls-46{fill:url(#Névtelen_színátmenet_506-3);}.cls-47,.cls-48,.cls-49,.cls-50{fill:#fef5fa;}.cls-49{opacity:0.1;}.cls-50{opacity:0.25;}</style><linearGradient id="Névtelen_színátmenet_194" x1="116.68" y1="147.91" x2="116.68" y2="1.37" gradientTransform="translate(0.12 -1.5) scale(1.44 1.1)" gradientUnits="userSpaceOnUse"><stop offset="0" stop-color="#fbdeed"/><stop offset="0.33" stop-color="#f9cde2"/><stop offset="0.65" stop-color="#f7c2db"/><stop offset="0.75" stop-color="#d8b7d8"/><stop offset="0.84" stop-color="#bfaed5"/><stop offset="0.93" stop-color="#afa8d4"/><stop offset="1" stop-color="#aaa6d3"/></linearGradient><linearGradient id="Névtelen_színátmenet_88" x1="168.06" y1="139.55" x2="168.06" y2="78.87" gradientUnits="userSpaceOnUse"><stop offset="0" stop-color="#fff"/><stop offset="0.27" stop-color="#fff" stop-opacity="0.73"/><stop offset="0.52" stop-color="#fff" stop-opacity="0.5"/><stop offset="0.73" stop-color="#fff" stop-opacity="0.34"/><stop offset="0.9" stop-color="#fff" stop-opacity="0.24"/><stop offset="1" stop-color="#fff" stop-opacity="0.2"/></linearGradient><linearGradient id="Névtelen_színátmenet_250" x1="168.07" y1="139.41" x2="168.07" y2="122.82" gradientUnits="userSpaceOnUse"><stop offset="0" stop-color="#fff"/><stop offset="0.88" stop-color="#fff"/></linearGradient><linearGradient id="Névtelen_színátmenet_93" x1="164.56" y1="135.35" x2="164.56" y2="89.02" gradientUnits="userSpaceOnUse"><stop offset="0" stop-color="#fff" stop-opacity="0"/><stop offset="0.22" stop-color="#fff" stop-opacity="0.07"/><stop offset="0.66" stop-color="#fff" stop-opacity="0.24"/><stop offset="1" stop-color="#fff" stop-opacity="0.4"/></linearGradient><linearGradient id="Névtelen_színátmenet_218" x1="134.42" y1="116.89" x2="201.57" y2="116.89" gradientUnits="userSpaceOnUse"><stop offset="0" stop-color="#fff"/><stop offset="0.24" stop-color="#fbfbec"/><stop offset="0.73" stop-color="#f4f5cb"/><stop offset="1" stop-color="#f1f2be"/></linearGradient><radialGradient id="Névtelen_színátmenet_234" cx="174.09" cy="-57.67" r="55.36" gradientTransform="translate(-1.98 185.48) rotate(-3.66)" gradientUnits="userSpaceOnUse"><stop offset="0" stop-color="#fff"/><stop offset="0.13" stop-color="#fff" stop-opacity="0.99"/><stop offset="0.25" stop-color="#fff" stop-opacity="0.94"/><stop offset="0.37" stop-color="#feffff" stop-opacity="0.87"/><stop offset="0.48" stop-color="#fdfeff" stop-opacity="0.76"/><stop offset="0.6" stop-color="#fcfeff" stop-opacity="0.62"/><stop offset="0.71" stop-color="#fbfdff" stop-opacity="0.46"/><stop offset="0.82" stop-color="#f9fdff" stop-opacity="0.26"/><stop offset="0.93" stop-color="#f7fcff" stop-opacity="0.04"/><stop offset="0.95" stop-color="#f7fcff" stop-opacity="0"/></radialGradient><linearGradient id="Névtelen_színátmenet_200" x1="168.12" y1="180.76" x2="168.12" y2="139.67" gradientUnits="userSpaceOnUse"><stop offset="0" stop-color="#aaa6d3"/><stop offset="0.11" stop-color="#a6a1cf"/><stop offset="0.24" stop-color="#9c94c5"/><stop offset="0.38" stop-color="#8b7db4"/><stop offset="0.52" stop-color="#735e9c"/><stop offset="0.65" stop-color="#573a81"/><stop offset="0.99" stop-color="#373068"/></linearGradient><linearGradient id="Névtelen_színátmenet_203" x1="168.11" y1="235.48" x2="168.11" y2="179.01" gradientUnits="userSpaceOnUse"><stop offset="0" stop-color="#8878b6"/><stop offset="0.45" stop-color="#c3add2"/><stop offset="0.81" stop-color="#ecd0e6"/><stop offset="0.99" stop-color="#fbdeed"/></linearGradient><linearGradient id="Névtelen_színátmenet_136" x1="167.65" y1="176.14" x2="167.65" y2="138.85" gradientUnits="userSpaceOnUse"><stop offset="0" stop-color="#fff" stop-opacity="0"/><stop offset="1" stop-color="#fff"/></linearGradient><linearGradient id="Névtelen_színátmenet_218-2" x1="242.31" y1="178.95" x2="241.88" y2="147.48" gradientTransform="translate(12.15 -15.99) rotate(4.11)" xlink:href="#Névtelen_színátmenet_218"/><linearGradient id="Névtelen_színátmenet_218-3" x1="209.15" y1="174.64" x2="209.03" y2="165.64" gradientTransform="translate(12.15 -15.99) rotate(4.11)" xlink:href="#Névtelen_színátmenet_218"/><linearGradient id="Névtelen_színátmenet_228" x1="245.26" y1="229.95" x2="245.26" y2="151.94" gradientUnits="userSpaceOnUse"><stop offset="0" stop-color="#2e2868" stop-opacity="0"/><stop offset="0.26" stop-color="#261f55" stop-opacity="0.22"/><stop offset="0.64" stop-color="#1f1642" stop-opacity="0.43"/><stop offset="1" stop-color="#1c133c" stop-opacity="0.5"/></linearGradient><linearGradient id="Névtelen_színátmenet_218-4" x1="84.11" y1="190.32" x2="83.68" y2="158.85" gradientTransform="matrix(-1, 0.07, 0.07, 1, 163.24, -15.99)" xlink:href="#Névtelen_színátmenet_218"/><linearGradient id="Névtelen_színátmenet_218-5" x1="50.95" y1="186.01" x2="50.83" y2="177.01" gradientTransform="matrix(-1, 0.07, 0.07, 1, 163.24, -15.99)" xlink:href="#Névtelen_színátmenet_218"/><linearGradient id="Névtelen_színátmenet_228-2" x1="86.68" y1="229.67" x2="86.68" y2="151.66" gradientTransform="matrix(-1, 0, 0, 1, 175.52, 0.28)" xlink:href="#Névtelen_színátmenet_228"/><linearGradient id="Névtelen_színátmenet_232" x1="167.99" y1="215.71" x2="167.99" y2="178.83" gradientUnits="userSpaceOnUse"><stop offset="0" stop-color="#2e2868" stop-opacity="0"/><stop offset="0.36" stop-color="#2b2461" stop-opacity="0.08"/><stop offset="0.78" stop-color="#221a4b" stop-opacity="0.33"/><stop offset="1" stop-color="#1c133c" stop-opacity="0.5"/></linearGradient><linearGradient id="linear-gradient" x1="-253.32" y1="-47.11" x2="907.32" y2="-47.11" gradientTransform="translate(0.62 69.82)" gradientUnits="userSpaceOnUse"><stop offset="0.1" stop-color="#fef5fa" stop-opacity="0"/><stop offset="0.2" stop-color="#fef5fa" stop-opacity="0.17"/><stop offset="0.38" stop-color="#fef5fa" stop-opacity="0.46"/><stop offset="0.55" stop-color="#fef5fa" stop-opacity="0.69"/><stop offset="0.69" stop-color="#fef5fa" stop-opacity="0.86"/><stop offset="0.8" stop-color="#fef5fa" stop-opacity="0.96"/><stop offset="0.87" stop-color="#fef5fa"/></linearGradient><linearGradient id="linear-gradient-2" x1="-253.32" y1="37.26" x2="907.32" y2="37.26" gradientTransform="translate(0.62 69.82)" gradientUnits="userSpaceOnUse"><stop offset="0" stop-color="#fef5fa"/><stop offset="1" stop-color="#f7c2db"/></linearGradient><linearGradient id="linear-gradient-3" x1="-252.34" y1="90.84" x2="908.3" y2="90.84" gradientTransform="translate(337.06 140.32) rotate(180)" xlink:href="#linear-gradient"/><linearGradient id="linear-gradient-4" x1="-595.8" y1="10.43" x2="815.07" y2="10.43" xlink:href="#linear-gradient"/><linearGradient id="linear-gradient-5" x1="-531.01" y1="117.03" x2="745.88" y2="117.03" gradientTransform="translate(343.65 153.46) rotate(180)" xlink:href="#linear-gradient"/><linearGradient id="linear-gradient-6" x1="-531.01" y1="59.33" x2="745.88" y2="59.33" gradientTransform="translate(343.65 153.46) rotate(180)" xlink:href="#linear-gradient"/><linearGradient id="Névtelen_színátmenet_506" x1="162.32" y1="93.73" x2="174.52" y2="93.73" gradientUnits="userSpaceOnUse"><stop offset="0.01" stop-color="#eaeaea"/><stop offset="1" stop-color="#c6c2bd"/></linearGradient><linearGradient id="Névtelen_színátmenet_249" x1="163.53" y1="103.1" x2="172.9" y2="103.1" gradientUnits="userSpaceOnUse"><stop offset="0" stop-color="#aaa6d3"/><stop offset="0.21" stop-color="#8878b6"/><stop offset="0.36" stop-color="#8374b2"/><stop offset="0.53" stop-color="#7668a6"/><stop offset="0.72" stop-color="#5f5493"/><stop offset="0.91" stop-color="#403878"/><stop offset="1" stop-color="#2e2868"/></linearGradient><linearGradient id="Névtelen_színátmenet_248" x1="162.05" y1="117.02" x2="174.42" y2="104.65" gradientUnits="userSpaceOnUse"><stop offset="0" stop-color="#2e2868"/><stop offset="0.09" stop-color="#403878"/><stop offset="0.28" stop-color="#5f5493"/><stop offset="0.47" stop-color="#7668a6"/><stop offset="0.64" stop-color="#8374b2"/><stop offset="0.79" stop-color="#8878b6"/><stop offset="1" stop-color="#aaa6d3"/></linearGradient><linearGradient id="Névtelen_színátmenet_506-2" x1="167.77" y1="129.76" x2="168.66" y2="129.76" xlink:href="#Névtelen_színátmenet_506"/><linearGradient id="Névtelen_színátmenet_506-3" x1="160.32" y1="138.06" x2="176.11" y2="138.06" xlink:href="#Névtelen_színátmenet_506"/></defs><title>eezy_24</title><g class="cls-1"><g id="Layer"><rect class="cls-2" x="0.12" width="335.99" height="161.38"/><path class="cls-3" d="M326.35,89.42a9.78,9.78,0,0,0-1.65,9.4,5.29,5.29,0,0,0-2.84.91,5.3,5.3,0,0,0-1-1,4,4,0,0,0,.24-1.15,4.07,4.07,0,0,0-3.91-4.24,4,4,0,0,0-2.32.61,4.12,4.12,0,0,0-2.55-1.21,6.08,6.08,0,0,0-.62-2.69,4.61,4.61,0,0,0-7.75-4.2,6.3,6.3,0,0,0-6.63-2.78,8.44,8.44,0,0,0-1.77-1,8.08,8.08,0,0,0-9.28,12.73,4.76,4.76,0,0,0-.66-.06,4.12,4.12,0,0,0-2.76,1.17,7.41,7.41,0,0,0-1.3-1.2c0-.13,0-.26,0-.39a4.58,4.58,0,0,0-8.18-2.79,4.56,4.56,0,1,0-9.07-.71,4.53,4.53,0,0,0-4.19,4H260a5.48,5.48,0,0,0-5.39,5.57,5.31,5.31,0,0,0,.47,2.06,4,4,0,0,0-1-.14,4.17,4.17,0,0,0-3.64,2.29,6.12,6.12,0,0,0-2.42-.44,6.34,6.34,0,0,0-1,12.58,5.62,5.62,0,0,0,1.17,3.89c0,.06.1.12.15.18a5.64,5.64,0,0,0-.93,4.55,7,7,0,0,0-1.25.64,6.77,6.77,0,0,0-10,5.89,6.77,6.77,0,0,0-5.16-1.49,6.68,6.68,0,0,0-.38-3.69,6.78,6.78,0,0,0-10.38-8,5.32,5.32,0,0,0-.61.55,6.78,6.78,0,0,0-12,4.17l.44.62a4.67,4.67,0,0,0-3.09,1.32,6.33,6.33,0,0,0-6.63-2.79,8.23,8.23,0,0,0-1.77-1,8.08,8.08,0,0,0-9.28,12.73,3,3,0,0,0-.67-.06,4.1,4.1,0,0,0-2.75,1.16,8.62,8.62,0,0,0-1.3-1.19c0-.13,0-.26,0-.4a4.62,4.62,0,0,0-4.69-4.52,4.56,4.56,0,0,0-3.5,1.73,4.53,4.53,0,0,0-6.27-4.83,4.53,4.53,0,0,0-6.27,4.83,4.54,4.54,0,0,0-3.5-1.73,4.6,4.6,0,0,0-4.68,4.52,2.6,2.6,0,0,0,0,.4,7.76,7.76,0,0,0-1.3,1.19,4.11,4.11,0,0,0-2.76-1.16,3,3,0,0,0-.67.06,8.08,8.08,0,0,0-9.27-12.73,7.77,7.77,0,0,0-1.77,1,6.49,6.49,0,0,0-1.65-.11,5.5,5.5,0,0,0-4.43-2.41h-.13A4.57,4.57,0,0,0,130,117a4.62,4.62,0,0,0-2.51-1,4.55,4.55,0,0,0-8.12-2.78,4.49,4.49,0,0,0-.94,3.49,4.57,4.57,0,0,0-7.59.64,6.78,6.78,0,0,0-3.44,1.57v-1.37c-.13,0-.27,0-.4,0a8.07,8.07,0,0,0-10.72-10.26,7.56,7.56,0,0,0-1.77,1c-.17,0-.34,0-.51-.06a6.33,6.33,0,0,0-5.81-4,6.14,6.14,0,0,0-2.43.44,4.17,4.17,0,0,0-3.63-2.29,4.11,4.11,0,0,0-1.06.14,5.4,5.4,0,0,0-4.91-7.63H76a4.57,4.57,0,0,0-1.68-3.07,4.5,4.5,0,0,0-2.52-1,4.55,4.55,0,1,0-9.06.71,4.57,4.57,0,0,0-8.12,2.23,5.45,5.45,0,0,0-3.31-1.42A8.07,8.07,0,0,0,40.61,82.06a8.19,8.19,0,0,0-1.77,1,6.31,6.31,0,0,0-6.64,2.78,4.6,4.6,0,0,0-5-1,4.68,4.68,0,0,0-.59.31,8.76,8.76,0,0,0-.45-1.46,8.1,8.1,0,0,0-10.61-4.28,8.19,8.19,0,0,0-1.77,1,6.31,6.31,0,0,0-6.64,2.78c-1.29-1.26-5.18-1.7-6.95-1l0,57.16,167.87-.23,167.87.23V89.2C333.51,86.35,328,87.41,326.35,89.42Z" transform="translate(0.12 0.28)"/><path class="cls-4" d="M330.39,131.44a2.62,2.62,0,0,0-1-1.18,2.48,2.48,0,0,0-2.48-.15,5.4,5.4,0,0,0-2.26-3.26,5.19,5.19,0,0,0-7.28,1.59h0a2.87,2.87,0,0,0-3.92,1l-.05.09a2,2,0,0,0-.51-.46,2.32,2.32,0,0,0-1.68-.35,4.64,4.64,0,0,0-2.05-4A4.44,4.44,0,0,0,303,126a4.72,4.72,0,0,0-.65,1.7,3,3,0,0,0-3.62.71,6.73,6.73,0,0,0-2.92-4.52,6.5,6.5,0,0,0-8.84,1.56h0a4.44,4.44,0,0,0-6.24,1.37,4.58,4.58,0,0,0-.69,2,6.64,6.64,0,0,0-11.49.45,6.38,6.38,0,0,0-7.68.72,4.93,4.93,0,0,0-1.58.14,4.11,4.11,0,0,0-1.32-.22,4,4,0,0,0-1.38.25,4.66,4.66,0,0,0-4-2.34h-.12a5,5,0,0,0-1.06-.93,5.14,5.14,0,0,0-4.4-.63,7.07,7.07,0,0,0-9.1,1.51,4.62,4.62,0,0,0-2-3.08,4.44,4.44,0,0,0-6.24,1.37,4.72,4.72,0,0,0-.65,1.7,3,3,0,0,0-3.62.71,6.76,6.76,0,0,0-2.92-4.52,6.5,6.5,0,0,0-8.84,1.56h0a4.44,4.44,0,0,0-6.24,1.37,4.58,4.58,0,0,0-.69,2,6.64,6.64,0,0,0-11.5.45,6.33,6.33,0,0,0-3.36-1,6.4,6.4,0,0,0-4.92,2.32,4,4,0,0,0-2.29-.72,4,4,0,0,0-1.38.25,4.62,4.62,0,0,0-7-1.23,7.19,7.19,0,0,0-6.25-3.7,7.07,7.07,0,0,0-5,2.08,4.93,4.93,0,0,0-.51-.42,5.19,5.19,0,0,0-7.28,1.59h0a2.87,2.87,0,0,0-3.92,1l-.05.09a2.47,2.47,0,0,0-.51-.46,2.32,2.32,0,0,0-1.68-.35,4.62,4.62,0,0,0-2.06-4,4.43,4.43,0,0,0-6.23,1.37,4.54,4.54,0,0,0-.65,1.7,3,3,0,0,0-3.62.71,6.76,6.76,0,0,0-2.92-4.52,6.5,6.5,0,0,0-8.84,1.56h0a4.43,4.43,0,0,0-6.23,1.37,4.59,4.59,0,0,0-.7,2,6.64,6.64,0,0,0-11.49.45,6.36,6.36,0,0,0-7.67.72,4.91,4.91,0,0,0-1.58.14,4.15,4.15,0,0,0-1.32-.22,4,4,0,0,0-1.38.25,4.66,4.66,0,0,0-4-2.34h-.12a5.24,5.24,0,0,0-1.06-.93,5.16,5.16,0,0,0-4.41-.63,7,7,0,0,0-3.66-1,7.14,7.14,0,0,0-5.44,2.54,4.59,4.59,0,0,0-2-3.08A4.43,4.43,0,0,0,69.33,126a4.74,4.74,0,0,0-.66,1.7,3,3,0,0,0-3.61.71,6.76,6.76,0,0,0-2.92-4.52,6.5,6.5,0,0,0-8.84,1.56h0A4.44,4.44,0,0,0,47,126.83a4.71,4.71,0,0,0-.69,2,6.64,6.64,0,0,0-11.49.45,6.33,6.33,0,0,0-3.36-1,6.4,6.4,0,0,0-4.92,2.32,4,4,0,0,0-2.29-.72,3.93,3.93,0,0,0-1.38.25,4.63,4.63,0,0,0-7-1.23,7.12,7.12,0,0,0-12.33-.27,6.48,6.48,0,0,0-3.34-1.33v12.12H335.93v-8.94A4.59,4.59,0,0,0,330.39,131.44Z" transform="translate(0.12 0.28)"/><path class="cls-5" d="M71.82,90.81a4.5,4.5,0,0,1,2.52,1A4.57,4.57,0,0,1,76,94.86h.13a5.4,5.4,0,0,1,4.91,7.63,4.11,4.11,0,0,1,1.06-.14,4.17,4.17,0,0,1,3.63,2.29,6.14,6.14,0,0,1,2.43-.44,6.33,6.33,0,0,1,5.81,4c.17,0,.34,0,.51.06a7.56,7.56,0,0,1,1.77-1A8.07,8.07,0,0,1,107,117.52c.13,0,.27,0,.4,0v1.37a6.78,6.78,0,0,1,3.44-1.57,4.57,4.57,0,0,1,7.59-.64,4.49,4.49,0,0,1,.94-3.49,4.55,4.55,0,0,1,8.12,2.78,4.62,4.62,0,0,1,2.51,1,4.57,4.57,0,0,1,1.69,3.07h.13a5.5,5.5,0,0,1,4.43,2.41,6.49,6.49,0,0,1,1.65.11,7.77,7.77,0,0,1,1.77-1,8.08,8.08,0,0,1,9.27,12.73,3,3,0,0,1,.67-.06,4.13,4.13,0,0,1,2.76,1.16,7.76,7.76,0,0,1,1.3-1.19,2.6,2.6,0,0,1,0-.4,4.6,4.6,0,0,1,4.68-4.52,4.54,4.54,0,0,1,3.5,1.73,4.53,4.53,0,0,1,6.27-4.83,4.53,4.53,0,0,1,6.27,4.83,4.56,4.56,0,0,1,3.5-1.73,4.62,4.62,0,0,1,4.69,4.52c0,.14,0,.27,0,.4a8.62,8.62,0,0,1,1.3,1.19,4.1,4.1,0,0,1,2.75-1.16,3,3,0,0,1,.67.06,8.08,8.08,0,0,1,9.28-12.73,8.23,8.23,0,0,1,1.77,1,6.33,6.33,0,0,1,6.63,2.79A4.62,4.62,0,0,1,208,124l-.44-.62a6.78,6.78,0,0,1,12-4.17,5.32,5.32,0,0,1,.61-.55,6.78,6.78,0,0,1,10.38,8,6.68,6.68,0,0,1,.38,3.69,6.77,6.77,0,0,1,5.16,1.49,6.77,6.77,0,0,1,10-5.89,7,7,0,0,1,1.25-.64,5.64,5.64,0,0,1,.93-4.55c-.05-.06-.11-.12-.15-.18a5.62,5.62,0,0,1-1.17-3.89,6.34,6.34,0,0,1,1-12.58,6.12,6.12,0,0,1,2.42.44,4.17,4.17,0,0,1,3.64-2.29,4,4,0,0,1,1,.14,5.31,5.31,0,0,1-.47-2.06,5.45,5.45,0,0,1,2.92-4.93,6.91,6.91,0,0,0-4.21-1.86,7,7,0,0,0-2.83.38l0,.2a3.8,3.8,0,0,0-1.86,1.85,6.84,6.84,0,0,0-12.86,2.7c0,.16,0,.33,0,.49a3.83,3.83,0,0,0-1.75-.58,3.78,3.78,0,0,0-4,3.48c0,.13,0,.25,0,.38a3.42,3.42,0,0,0-6.31.65,6.77,6.77,0,0,0-3.4-1.21,6.84,6.84,0,0,0-4.06,1,8.88,8.88,0,0,0-17.05-1.11A8.75,8.75,0,0,0,188,104.34a7.47,7.47,0,0,0-10.71-.53A7.7,7.7,0,0,0,163.22,99a7.65,7.65,0,0,0-10.2,3,7.5,7.5,0,0,0-13.36,0,4.39,4.39,0,0,0-3.18-1.71,4.3,4.3,0,0,0-2,.31A6.2,6.2,0,0,0,123,99.88a4.51,4.51,0,0,0-4.53-1.17A6,6,0,0,0,107,98.54a5.71,5.71,0,0,0-8.29-1.13,5.83,5.83,0,0,0-10.19.53A4.31,4.31,0,0,0,81,95.36a7,7,0,0,0-9.4-5.89A4.72,4.72,0,0,1,71.82,90.81Z" transform="translate(0.12 0.28)"/><path class="cls-6" d="M201.57,116.89A33.58,33.58,0,1,1,168,83.31,33.58,33.58,0,0,1,201.57,116.89Z" transform="translate(0.12 0.28)"/><path class="cls-7" d="M218.82,138.91a55.34,55.34,0,1,1-28.65-72.84A55.34,55.34,0,0,1,218.82,138.91Z" transform="translate(0.12 0.28)"/><rect class="cls-8" x="0.12" y="139.67" width="335.99" height="41.09"/><rect class="cls-9" x="0.1" y="179.01" width="336.01" height="56.46"/><path class="cls-10" d="M213,235.19c1.58-3.17,4.18-6.73,8.31-8.4a22.26,22.26,0,0,0-4.44,8.4Z" transform="translate(0.12 0.28)"/><path class="cls-10" d="M224.41,235.19h-3.23c-.15-4.75.49-10.16,3.5-13.48A72.64,72.64,0,0,0,224.41,235.19Z" transform="translate(0.12 0.28)"/><path class="cls-10" d="M228.3,235.19h-1.09a9.72,9.72,0,0,0-.57-4A16.72,16.72,0,0,1,228.3,235.19Z" transform="translate(0.12 0.28)"/><path class="cls-10" d="M250.42,235.19h-2c.61-3.41.68-7.4-1.1-10.61C247.36,224.58,249.66,227.66,250.42,235.19Z" transform="translate(0.12 0.28)"/><path class="cls-10" d="M244.39,235.19H241.8c-.37-6.24.46-14.3,6.18-18.74C248,216.45,242.33,222.18,244.39,235.19Z" transform="translate(0.12 0.28)"/><path class="cls-10" d="M236.47,235.19H232.4c.41-7.33.25-17-2.78-22.15C229.62,213,235.2,218.7,236.47,235.19Z" transform="translate(0.12 0.28)"/><path class="cls-11" d="M194.89,144.56c0-3.16,7.26-2.76,6.84-5.71H133.57c-.42,3,6.83,2.55,6.83,5.71,0,2.19-7,3.28-6.83,4.34-.12,2.32,14.62,1.27,14.62,3.6,0,2.78-12.1,2.17-12.1,4.34s13.26,1.43,12.78,3.6-8.93.74-8.93,2.91c0,5.14,17.4.44,19.18,3.36,0,4.1-17,3.6-17,7.29,0,2.43,18.33,2.13,25.26,2.13h1.06c7.09,0,24.79.3,24.79-2.13,0-3.69-17-3.19-17-7.29,1.78-2.92,19.17,1.78,19.17-3.36,0-2.17-8.46-.74-8.93-2.91s12.79-1.43,12.79-3.6-12.1-1.56-12.1-4.34c0-2.33,14.73-1.28,14.62-3.6C201.86,147.84,194.89,146.75,194.89,144.56Z" transform="translate(0.12 0.28)"/><g id="grass"><path class="cls-12" d="M167.16,229.3a42.15,42.15,0,0,1,2.33-7.2s-2.08,3.62-3.67,6.77a14.36,14.36,0,0,0-1.53,6.12h2.41A39,39,0,0,1,167.16,229.3Z" transform="translate(0.12 0.28)"/><path class="cls-13" d="M192,235h1.55a29.24,29.24,0,0,1-.08-3.87,14.88,14.88,0,0,1,1.59-4.63,34.23,34.23,0,0,0-3.06,4.43c0-2.4-.06-5.71-.16-9.48a138.2,138.2,0,0,0-1.29-15s.38,7.76.12,15.37A80.36,80.36,0,0,1,189.16,235H192Z" transform="translate(0.12 0.28)"/><path class="cls-13" d="M213.64,230a28,28,0,0,0-6.61,3.59,38.94,38.94,0,0,1,2.92-6.45s-2.79,3.62-4.93,6.77c-.25.38-.48.76-.68,1.13h2.75c.07-.14.13-.27.21-.41C208.71,231.94,213.64,230,213.64,230Z" transform="translate(0.12 0.28)"/><path class="cls-12" d="M169.86,234.14a35,35,0,0,1,3.13-7.2s-2.8,3.62-4.94,6.77a13.41,13.41,0,0,0-.76,1.28h2.4C169.74,234.71,169.8,234.43,169.86,234.14Z" transform="translate(0.12 0.28)"/><path class="cls-12" d="M173.62,234.77c1.41-2.64,6.35-4.63,6.35-4.63a27.92,27.92,0,0,0-7.94,4.63l-.24.22h1.72A2.26,2.26,0,0,1,173.62,234.77Z" transform="translate(0.12 0.28)"/><path class="cls-12" d="M163,235s-.72-2.28-.24-8.84,4.13-13,4.13-13a25.27,25.27,0,0,0-5.52,10.11,36,36,0,0,0-.82,7.31c-.74-2.82-1.6-5.52-1.6-5.52a30.1,30.1,0,0,1,.13,7.35c-.16.88-.37,1.75-.59,2.54H163Z" transform="translate(0.12 0.28)"/><path class="cls-10" d="M155.13,235a43.55,43.55,0,0,0-1.75-7.37c-1.29-3.83-5.55-8.16-5.55-8.16a25.38,25.38,0,0,1,3.82,7.92,14.85,14.85,0,0,1,.65,3.43,18.47,18.47,0,0,0-5.58-4.74s4.07,2.41,4.43,5.13a10.23,10.23,0,0,1-.21,3.79h4.19Z" transform="translate(0.12 0.28)"/><path class="cls-14" d="M185.49,234.75a85.65,85.65,0,0,0-2.15-15s.42,5.15.34,11.17c-1-2.94-2.15-5.86-2.15-5.86a27.2,27.2,0,0,1,.49,7.38,23.19,23.19,0,0,1-.54,2.54h4Z" transform="translate(0.12 0.28)"/><path class="cls-13" d="M198.57,235a16.37,16.37,0,0,1,.77-4.64,10.61,10.61,0,0,1,3.63-4.63,16.42,16.42,0,0,0-4.54,4.63,12.87,12.87,0,0,0-1.23,2.18,7.67,7.67,0,0,0-1.23-3.61,6.1,6.1,0,0,1,.38,5c-.15.37-.31.72-.47,1.06h2.69Z" transform="translate(0.12 0.28)"/><path class="cls-10" d="M126,235s.72-2.28.24-8.84-4.13-13-4.13-13a25.41,25.41,0,0,1,5.52,10.11,35.27,35.27,0,0,1,.81,7.31c.74-2.82,1.61-5.52,1.61-5.52a29.57,29.57,0,0,0-.13,7.35c.16.88.37,1.75.59,2.54H126Z" transform="translate(0.12 0.28)"/><path class="cls-13" d="M107.32,229.3a42.15,42.15,0,0,1,2.33-7.2s-2.08,3.62-3.68,6.77a14.36,14.36,0,0,0-1.53,6.12h2.42A37.48,37.48,0,0,1,107.32,229.3Z" transform="translate(0.12 0.28)"/><path class="cls-13" d="M110,234.14a35,35,0,0,1,3.13-7.2s-2.8,3.62-4.94,6.77a13.41,13.41,0,0,0-.76,1.28h2.4C109.9,234.71,110,234.43,110,234.14Z" transform="translate(0.12 0.28)"/><path class="cls-13" d="M113.78,234.77c1.41-2.64,6.34-4.63,6.34-4.63a27.8,27.8,0,0,0-7.93,4.63l-.25.22h1.72Z" transform="translate(0.12 0.28)"/><path class="cls-13" d="M98.37,235s-.72-2.28-.24-8.84,4.13-13,4.13-13a25.41,25.41,0,0,0-5.52,10.11,36,36,0,0,0-.82,7.31c-.73-2.82-1.6-5.52-1.6-5.52a30.1,30.1,0,0,1,.13,7.35c-.16.88-.37,1.75-.59,2.54h4.51Z" transform="translate(0.12 0.28)"/><path class="cls-10" d="M137,235a16.37,16.37,0,0,1,.77-4.64,10.6,10.6,0,0,1,3.64-4.63,16.52,16.52,0,0,0-4.55,4.63,14.43,14.43,0,0,0-1.23,2.18,7.67,7.67,0,0,0-1.23-3.61,6.06,6.06,0,0,1,.38,5c-.15.37-.3.72-.46,1.06H137Z" transform="translate(0.12 0.28)"/><path class="cls-13" d="M87.55,221.81c-.26-7.61.13-15.37.13-15.37a139.66,139.66,0,0,0-1.3,15c0,.56,0,1.11,0,1.65V235h2.71A81,81,0,0,1,87.55,221.81Z" transform="translate(0.12 0.28)"/></g><path class="cls-10" d="M184.28,178.83h0c0-1.17-7.29-2.69-16.29-2.69s-16.29,1.52-16.29,2.69h32.58Z" transform="translate(0.12 0.28)"/><path class="cls-10" d="M203.34,139.18c0,1.53-15.83,2.77-35.35,2.77s-35.34-1.24-35.34-2.77,15.82-2.77,35.34-2.77S203.34,137.65,203.34,139.18Z" transform="translate(0.12 0.28)"/><path class="cls-12" d="M168,142h-1l0,34.21c.42,0,.4,0,.83,0l1.26,0,0-34.21Z" transform="translate(0.12 0.28)"/><polygon class="cls-10" points="245.81 174.85 196.99 174.75 193.63 177.43 244.33 177.71 245.81 174.85"/><polygon class="cls-15" points="233.78 122 191.23 182.78 189.3 180.74 231.33 120.67 233.78 122"/><polygon class="cls-16" points="234.04 120.87 231.33 120.67 233.78 122 236.39 122.18 234.04 120.87"/><polygon class="cls-15" points="283.22 123.44 238.98 186.21 237.05 184.18 280.78 122.12 283.22 123.44"/><polygon class="cls-16" points="283.49 122.31 280.78 122.12 283.22 123.44 285.83 123.63 283.49 122.31"/><polygon class="cls-15" points="215.91 191.18 195.34 174.4 193.67 176.87 216.28 195.6 215.91 191.18"/><polygon class="cls-15" points="267.2 192.03 246.63 175.25 244.96 177.71 267.57 196.45 267.2 192.03"/><polygon class="cls-10" points="265.59 152 285.83 123.63 283.22 123.44 278.42 129.19 231.96 128.57 236.39 122.18 233.78 122 191.23 182.78 193.75 182.83 213.98 154.05 216.25 200.59 218.76 200.49 216.16 150.95 229.72 131.66 276.71 131.98 238.98 186.21 241.5 186.26 263.42 155.08 265.58 199.4 268.34 199.27 265.59 152 265.59 152"/><path class="cls-17" d="M249.9,159.3c10.88-14.3,17.6-24.34,19.79-27.52l-34.25-.22c-2.7,5.53-10.11,19.51-19,26.22l.7,13.48C228.32,170.94,242.85,168.57,249.9,159.3Z" transform="translate(0.12 0.28)"/><path class="cls-18" d="M214.13,159.3a15.23,15.23,0,0,1-5.62,2.08l-6.47,9.2a98.77,98.77,0,0,0,12.67.72Z" transform="translate(0.12 0.28)"/><path class="cls-13" d="M279.42,216.27c-4-2.36-8-6.46-12.16-11.19,0,0,3.33-3.4,2.38-4.09,0,0-2.55,2.34-4.59,1.59.15-.15-9.21-7.35-11.38-10,0,0,3.32-2.21,3.19-3.08,0,0-3.69,2.12-5.11,1.39-1.09-.61-4.48-4.83-6.27-8.17h0l0,0,0-.08h0l.08,0,0,0h0c3.29-1.89,9.12-2.74,10.49-2.28,1.81.53,2.88,4.79,2.85,4.79.82-.46,0-4.49,0-4.49,3.83-.66,17.06,4.82,17,5.06,2,1.83.77,5.14.77,5.13,1.12.73,3-3.65,3-3.65,7.15,3,13.26,7.78,16.4,12.64s-.39,7,.38,7.56,3.84-2.8,3.84-2.8c12.8,17.32,4.67,27,5,26.66l-.16.1h0l-.09,0-.07.05h0l-.17.08c-.28.17-10.26.08-21.75-11.65,0,0,3.7-2.71,3.28-3.43S283.39,218.66,279.42,216.27Z" transform="translate(0.12 0.28)"/><path class="cls-14" d="M294.57,216.25l-.82-1a108.33,108.33,0,0,0-12.05-12.09,11.42,11.42,0,0,1-1.56,1.21,14.77,14.77,0,0,1-1.88,1,20.09,20.09,0,0,1-4.11,1.31,17.39,17.39,0,0,0,3.7-1.88,11.27,11.27,0,0,0,1.57-1.24,8.33,8.33,0,0,0,1.18-1.34,108.14,108.14,0,0,0-13.26-9.47c-.49-.3-1-.6-1.47-.89a6.24,6.24,0,0,1-2.54,1.89,12.84,12.84,0,0,1-3.12.9,10.63,10.63,0,0,0,2.67-1.42,4.92,4.92,0,0,0,1.71-2.09l.85.47a116.47,116.47,0,0,0-13.76-6.8A88.54,88.54,0,0,1,265,190.49a4.82,4.82,0,0,0,.7-2.4,8.92,8.92,0,0,0-.47-3.08,10.68,10.68,0,0,1,1.19,3.19,5.82,5.82,0,0,1-.16,3c.52.28,1,.56,1.56.85a93.58,93.58,0,0,1,13.54,9.38,8.93,8.93,0,0,0,.95-1.23,10,10,0,0,0,.9-1.79,13.23,13.23,0,0,0,.9-4.14,14.49,14.49,0,0,1-.23,4.48,11.16,11.16,0,0,1-.63,2.06,9,9,0,0,1-.81,1.53,94.66,94.66,0,0,1,12,12.41l.81,1a14.88,14.88,0,0,0,2.28-1.85,15.46,15.46,0,0,0,2.09-2.52,16.19,16.19,0,0,1-1.55,3,15,15,0,0,1-1.95,2.46,88.92,88.92,0,0,1,8,12.64,117.34,117.34,0,0,0-9-12.62l.38.49a17.93,17.93,0,0,1-3,1.47,24,24,0,0,1-3.23,1,19.27,19.27,0,0,0,2.86-1.57A15.92,15.92,0,0,0,294.57,216.25Z" transform="translate(0.12 0.28)"/><path class="cls-12" d="M295.86,204.21c-2.3-2.73-4.18-6.73-6-11.23,0,0,3.29-1.61,2.77-2.36,0,0-2.44,1-3.74,0,.15-.07-4.82-7.68-5.73-10.13,0,0,3-.76,3.1-1.43,0,0-3.22.61-4.07-.29-.63-.72-2-4.65-2.47-7.53h0v0a.13.13,0,0,0,0-.06h.1c2.87-.53,7.32.33,8.2,1,1.18.85.87,4.22.85,4.2.71-.12,1.17-3.25,1.15-3.25,3,.49,11.17,7.85,11,8,1,1.83-.75,3.93-.74,3.93.62.81,3.12-1.88,3.11-1.89,4.43,4,7.65,9,8.7,13.36s-2.06,5-1.65,5.58S314,201,314,201c4.89,15.84-3.48,20.81-3.15,20.64l-.14,0h-.07l-.07,0h-.14c-.25.06-7.48-2.55-12.84-14,0,0,3.38-1,3.25-1.65S298.14,207,295.86,204.21Z" transform="translate(0.12 0.28)"/><path class="cls-15" d="M306.88,208.05l-.36-.92a83.75,83.75,0,0,0-5.68-11.85,7.29,7.29,0,0,1-1.43.48,11.29,11.29,0,0,1-1.63.26,14.69,14.69,0,0,1-3.31-.1,12.68,12.68,0,0,0,3.16-.42,8.39,8.39,0,0,0,1.46-.5,7.38,7.38,0,0,0,1.2-.67,84.69,84.69,0,0,0-7.23-10.26c-.28-.34-.55-.68-.84-1a4.79,4.79,0,0,1-2.33.72,10,10,0,0,1-2.5-.14,8.27,8.27,0,0,0,2.31-.35,3.81,3.81,0,0,0,1.77-1.09l.5.56a90.15,90.15,0,0,0-8.27-8.44,68,68,0,0,1,8.23,7.49,3.65,3.65,0,0,0,1.11-1.57,7,7,0,0,0,.45-2.35,8.19,8.19,0,0,1,0,2.61,4.39,4.39,0,0,1-.86,2.11l.91,1A71.39,71.39,0,0,1,301,193.89a5.91,5.91,0,0,0,1-.65,8.07,8.07,0,0,0,1.12-1.07,10.26,10.26,0,0,0,1.7-2.79,10.92,10.92,0,0,1-1.3,3.2,9.41,9.41,0,0,1-1,1.34,7,7,0,0,1-1,.9,71.89,71.89,0,0,1,5.58,12.08c.11.31.22.63.32.95a11.14,11.14,0,0,0,2.14-.76,12.26,12.26,0,0,0,2.16-1.3,12.53,12.53,0,0,1-1.9,1.82,12.17,12.17,0,0,1-2.05,1.29,67.88,67.88,0,0,1,2.58,11.22,88,88,0,0,0-3.31-11.45c.06.15.11.3.16.45a14,14,0,0,1-2.57.29,16,16,0,0,1-2.59-.12,14.47,14.47,0,0,0,2.47-.41A12.21,12.21,0,0,0,306.88,208.05Z" transform="translate(0.12 0.28)"/><path class="cls-15" d="M335.79,218a7.52,7.52,0,0,1-2.43,2.43c.88-4.58-2.54-12.41-7.49-13.49.22,1.65-.19,2.12-.77,3.54-1.61-4.24-7.07-7.18-11.1-7.25a5.58,5.58,0,0,1,.4,3.51C309,202.32,301,202.12,295.24,201c-.07-.09-.13-.18-.2-.26a1.49,1.49,0,0,0,0,.21l-.22,0,.2.27c-.38,5.82-2.3,13.61.51,20-1.31-.27-2.12-.26-3.28-1.31-1,3.91.4,10,4.07,12.61-1.52.19-2.08.47-3.62-.18a6.67,6.67,0,0,0,.57,2.94h42.54Z" transform="translate(0.12 0.28)"/><path class="cls-19" d="M310.17,235c.91-1.25,1.86-2.48,2.9-3.65,5.63-2.39,12.42-3.48,20.24-3.12A42.86,42.86,0,0,0,320,235Z" transform="translate(0.12 0.28)"/><path class="cls-20" d="M310.16,235h-10.8c5.22-7.57,13.84-13.66,28.61-14.6A44.22,44.22,0,0,0,310.16,235Z" transform="translate(0.12 0.28)"/><path class="cls-21" d="M308,226.54a31.47,31.47,0,0,0-8.58,8.47h-4.09v0c4.19-13,13.76-21.11,27.75-23A33.83,33.83,0,0,0,308,226.54Z" transform="translate(0.12 0.28)"/><path class="cls-21" d="M290.36,235.08s0,0,0-.07h4.9v0h0a37.26,37.26,0,0,1,2.2-5.37c-.74-8.84-2.22-16.22-4.67-20.91-2.4,4.72-3.87,12.17-4.58,21.1A38.31,38.31,0,0,1,290.36,235.08Zm2.18-5.82c.09-.2.17-.39.26-.55l.28.59c-.1-.2-.19-.4-.28-.59C292.71,228.89,292.62,229.08,292.54,229.26Z" transform="translate(0.12 0.28)"/><path class="cls-19" d="M266.07,235a42.86,42.86,0,0,0-13.35-6.77c7.82-.36,14.61.73,20.24,3.12a45.35,45.35,0,0,1,2.89,3.65Z" transform="translate(0.12 0.28)"/><path class="cls-21" d="M275.88,235a44.25,44.25,0,0,0-17.82-14.6c14.77.94,23.39,7,28.61,14.6Z" transform="translate(0.12 0.28)"/><path class="cls-20" d="M286.67,235a31.73,31.73,0,0,0-9.26-8.91A33.87,33.87,0,0,0,262.57,212c14,1.87,23.57,10,27.76,23Z" transform="translate(0.12 0.28)"/><path class="cls-14" d="M331.49,235.19s-2.31-12.05-14.31-29.6-16.39-35-15.52-48.62c0,0,8.19,4.47,22.23,30.49s12,47.73,12,47.73Z" transform="translate(0.12 0.28)"/><path class="cls-22" d="M333,235.19c-2.18-17.21-7.06-27.58-17.9-45.64C303.9,171,301.48,157.14,301.46,157l.41-.07c0,.13,2.43,13.88,13.55,32.4,10.88,18.11,15.78,28.57,18,45.85Z" transform="translate(0.12 0.28)"/><path class="cls-13" d="M56.44,216.27c4-2.36,8-6.46,12.17-11.19,0,0-3.34-3.4-2.39-4.09,0,0,2.55,2.34,4.59,1.59-.15-.15,9.21-7.35,11.38-10,0,0-3.32-2.21-3.18-3.08,0,0,3.68,2.12,5.11,1.39,1.09-.61,4.47-4.83,6.26-8.17h0l0,0s0,0,0-.08h0l-.07,0,0,0h0c-3.29-1.89-9.12-2.74-10.49-2.28C78,180.84,77,185.1,77,185.1c-.82-.46,0-4.49,0-4.49-3.83-.66-17.06,4.82-17,5.06-2,1.83-.78,5.14-.78,5.13-1.11.73-3-3.65-3-3.65-7.15,3-13.26,7.78-16.39,12.64s.39,7-.39,7.56-3.84-2.8-3.84-2.8c-12.79,17.32-4.67,27-5,26.66l.16.1h0l.09,0,.07.05h0l.17.08c.28.17,10.26.08,21.75-11.65,0,0-3.7-2.71-3.28-3.43S52.47,218.66,56.44,216.27Z" transform="translate(0.12 0.28)"/><path class="cls-14" d="M41.29,216.25l.82-1a108.42,108.42,0,0,1,12.06-12.09,10.75,10.75,0,0,0,1.55,1.21,14.24,14.24,0,0,0,1.89,1,19.8,19.8,0,0,0,4.1,1.31,17.39,17.39,0,0,1-3.7-1.88,11.89,11.89,0,0,1-1.57-1.24,8.33,8.33,0,0,1-1.18-1.34,108.91,108.91,0,0,1,13.26-9.47l1.47-.89a6.24,6.24,0,0,0,2.54,1.89,12.79,12.79,0,0,0,3.13.9A10.53,10.53,0,0,1,73,193.26a5,5,0,0,1-1.71-2.09l-.85.47a117.24,117.24,0,0,1,13.76-6.8,89,89,0,0,0-13.29,5.65,4.72,4.72,0,0,1-.69-2.4,8.91,8.91,0,0,1,.46-3.08,10.65,10.65,0,0,0-1.18,3.19,5.82,5.82,0,0,0,.15,3l-1.56.85a93.58,93.58,0,0,0-13.54,9.38,8.16,8.16,0,0,1-.94-1.23,10,10,0,0,1-.91-1.79,13,13,0,0,1-.89-4.14,14.19,14.19,0,0,0,.22,4.48,11.16,11.16,0,0,0,.63,2.06,8.35,8.35,0,0,0,.82,1.53,94.09,94.09,0,0,0-12,12.41l-.8,1a15,15,0,0,1-2.29-1.85,15.46,15.46,0,0,1-2.09-2.52,16.19,16.19,0,0,0,1.55,3,14.51,14.51,0,0,0,2,2.46,88,88,0,0,0-8,12.64,117.26,117.26,0,0,1,9-12.62l-.38.49a18,18,0,0,0,3,1.47,23.42,23.42,0,0,0,3.22,1,19.17,19.17,0,0,1-2.85-1.57A15.54,15.54,0,0,1,41.29,216.25Z" transform="translate(0.12 0.28)"/><path class="cls-12" d="M40,204.21c2.3-2.73,4.18-6.73,6-11.23,0,0-3.29-1.61-2.77-2.36,0,0,2.44,1,3.74,0-.15-.07,4.82-7.68,5.73-10.13,0,0-3-.76-3.1-1.43,0,0,3.22.61,4.07-.29.63-.72,2-4.65,2.47-7.53h0v0a.13.13,0,0,1,0-.06h-.1c-2.87-.53-7.32.33-8.2,1-1.18.85-.87,4.22-.85,4.2-.71-.12-1.17-3.25-1.15-3.25-3,.49-11.17,7.85-11,8-1,1.83.75,3.93.75,3.93-.63.81-3.13-1.88-3.12-1.89-4.43,4-7.65,9-8.7,13.36s2.07,5,1.65,5.58-3.5-1.05-3.5-1.05C17,216.84,25.37,221.81,25,221.64l.14,0h.07l.07,0h.15c.24.06,7.47-2.55,12.83-14,0,0-3.38-1-3.25-1.65S37.72,207,40,204.21Z" transform="translate(0.12 0.28)"/><path class="cls-15" d="M29,208.05c.11-.31.23-.61.35-.92A83.75,83.75,0,0,1,35,195.28a7.52,7.52,0,0,0,1.43.48,11.29,11.29,0,0,0,1.63.26,14.78,14.78,0,0,0,3.32-.1,12.75,12.75,0,0,1-3.17-.42,8,8,0,0,1-1.45-.5,7,7,0,0,1-1.2-.67,84.61,84.61,0,0,1,7.22-10.26l.84-1a4.83,4.83,0,0,0,2.33.72,10,10,0,0,0,2.5-.14,8.27,8.27,0,0,1-2.31-.35,3.81,3.81,0,0,1-1.77-1.09l-.5.56a90.15,90.15,0,0,1,8.27-8.44,67.16,67.16,0,0,0-8.22,7.49,3.66,3.66,0,0,1-1.12-1.57,6.78,6.78,0,0,1-.44-2.35,8.19,8.19,0,0,0-.05,2.61,4.49,4.49,0,0,0,.86,2.11l-.91,1a71.39,71.39,0,0,0-7.45,10.26,5.91,5.91,0,0,1-1-.65,8.07,8.07,0,0,1-1.12-1.07,10.26,10.26,0,0,1-1.7-2.79,10.92,10.92,0,0,0,1.3,3.2,8.75,8.75,0,0,0,1,1.34,6.42,6.42,0,0,0,1,.9A71.89,71.89,0,0,0,28.7,206.9c-.11.31-.21.63-.32.95a10.81,10.81,0,0,1-2.13-.76,12.34,12.34,0,0,1-2.17-1.3A12.14,12.14,0,0,0,26,207.61a11.7,11.7,0,0,0,2,1.29,68.9,68.9,0,0,0-2.58,11.22,89.6,89.6,0,0,1,3.31-11.45l-.16.45a14,14,0,0,0,2.58.29,15.93,15.93,0,0,0,2.58-.12,14.47,14.47,0,0,1-2.47-.41A11.88,11.88,0,0,1,29,208.05Z" transform="translate(0.12 0.28)"/><path class="cls-15" d="M.07,218a7.52,7.52,0,0,0,2.43,2.43C1.62,215.8,5,208,10,206.89c-.22,1.65.2,2.12.77,3.54,1.61-4.24,7.07-7.18,11.1-7.25a5.58,5.58,0,0,0-.4,3.51c5.42-4.37,13.44-4.57,19.16-5.73.07-.09.13-.18.2-.26a1.49,1.49,0,0,1,0,.21l.22,0-.2.27c.38,5.82,2.3,13.61-.51,20,1.31-.27,2.12-.26,3.29-1.31,1,3.91-.41,10-4.08,12.61,1.53.19,2.09.47,3.63-.18a6.83,6.83,0,0,1-.58,2.94H.07Z" transform="translate(0.12 0.28)"/><path class="cls-19" d="M25.69,235a45.48,45.48,0,0,0-2.9-3.65c-5.62-2.39-12.42-3.48-20.24-3.12A42.86,42.86,0,0,1,15.9,235Z" transform="translate(0.12 0.28)"/><path class="cls-20" d="M25.7,235H36.51c-5.23-7.57-13.85-13.66-28.62-14.6A44.15,44.15,0,0,1,25.7,235Z" transform="translate(0.12 0.28)"/><path class="cls-21" d="M27.92,226.54A31.75,31.75,0,0,1,36.5,235h4.09v0c-4.2-13-13.77-21.11-27.76-23A33.85,33.85,0,0,1,27.92,226.54Z" transform="translate(0.12 0.28)"/><path class="cls-21" d="M47.64,229.8c-.71-8.93-2.17-16.38-4.57-21.1-2.46,4.69-3.94,12.07-4.67,20.91A39.68,39.68,0,0,1,40.6,235h0v0h4.89l0,.07A38.28,38.28,0,0,1,47.64,229.8Zm-4.57-1.09c-.1.19-.19.39-.29.59.1-.22.2-.42.29-.59l.26.55C43.24,229.08,43.15,228.89,43.07,228.71Z" transform="translate(0.12 0.28)"/><path class="cls-19" d="M69.79,235a43,43,0,0,1,13.35-6.77c-7.82-.36-14.61.73-20.24,3.12A45.35,45.35,0,0,0,60,235Z" transform="translate(0.12 0.28)"/><path class="cls-21" d="M60,235a44.25,44.25,0,0,1,17.82-14.6c-14.77.94-23.39,7-28.61,14.6Z" transform="translate(0.12 0.28)"/><path class="cls-20" d="M49.19,235a31.73,31.73,0,0,1,9.26-8.91A33.87,33.87,0,0,1,73.29,212c-14,1.87-23.57,10-27.76,23Z" transform="translate(0.12 0.28)"/><path class="cls-14" d="M4.37,235.19s2.31-12.05,14.31-29.6,16.4-35,15.52-48.62c0,0-8.19,4.47-22.22,30.49S0,235.19,0,235.19Z" transform="translate(0.12 0.28)"/><path class="cls-22" d="M2.89,235.19C5.07,218,10,207.61,20.79,189.55,32,171,34.38,157.14,34.4,157l-.41-.07c0,.13-2.43,13.88-13.55,32.4-10.88,18.11-15.77,28.57-18,45.85Z" transform="translate(0.12 0.28)"/><polygon class="cls-23" points="191.08 182.78 241.77 235.47 299.44 235.63 241.34 186.26 238.83 186.21 260.67 210.19 226.62 210.22 193.6 182.83 191.08 182.78"/><polygon class="cls-10" points="88.44 174.85 137.26 174.75 140.62 177.43 89.92 177.71 88.44 174.85"/><polygon class="cls-15" points="100.47 122 143.02 182.78 144.95 180.74 102.92 120.67 100.47 122"/><polygon class="cls-16" points="100.21 120.87 102.92 120.67 100.47 122 97.86 122.18 100.21 120.87"/><polygon class="cls-15" points="51.31 123.44 95.27 186.21 97.2 184.18 53.76 122.12 51.31 123.44"/><polygon class="cls-16" points="51.04 122.31 53.76 122.12 51.31 123.44 48.7 123.63 51.04 122.31"/><polygon class="cls-15" points="118.34 191.18 138.91 174.4 140.58 176.87 117.97 195.6 118.34 191.18"/><polygon class="cls-15" points="67.05 192.03 87.62 175.25 89.29 177.71 66.68 196.45 67.05 192.03"/><polygon class="cls-10" points="68.67 152 48.7 123.63 51.31 123.44 56.11 129.19 102.3 128.57 97.86 122.18 100.47 122 143.02 182.78 140.5 182.83 120.27 154.05 118 200.59 115.49 200.49 118.09 150.95 104.53 131.66 57.82 131.98 95.27 186.21 92.75 186.26 70.83 155.08 68.67 199.4 65.91 199.27 68.66 152 68.67 152"/><path class="cls-24" d="M84.1,159.3C73.22,145,66.5,135,64.31,131.78l34.25-.22c2.7,5.53,10.12,19.51,19,26.22l-.7,13.48C105.68,170.94,91.15,168.57,84.1,159.3Z" transform="translate(0.12 0.28)"/><path class="cls-25" d="M119.87,159.3a15.23,15.23,0,0,0,5.62,2.08l6.47,9.2a98.77,98.77,0,0,1-12.67.72Z" transform="translate(0.12 0.28)"/><polygon class="cls-26" points="143.02 182.78 92.33 235.47 34.66 235.63 92.75 186.26 95.27 186.21 73.42 210.19 107.48 210.22 140.5 182.83 143.02 182.78"/><path class="cls-27" d="M184.28,178.83H151.7c0,1.12,6.79,2.57,15.33,2.67l0,34.21h2.16l0-34.21C177.59,181.38,184.28,179.94,184.28,178.83Zm-16.9,2.67h0Z" transform="translate(0.12 0.28)"/><polygon class="cls-28" points="336.38 15.26 0.31 17.65 0.31 26.99 336.38 30.16 336.38 15.26"/><polygon class="cls-29" points="336.38 99.63 0.31 104.86 0.31 111.36 336.38 114.53 336.38 99.63"/><polygon class="cls-30" points="0.31 56.92 336.38 54.05 336.38 45.25 0.31 42.03 0.31 56.92"/><polygon class="cls-31" points="0.03 75.37 0.03 85.13 285.89 78.22 0.03 75.37"/><polygon class="cls-32" points="335.97 40.03 335.97 32.84 77.25 36.35 335.97 40.03"/><polygon class="cls-33" points="335.97 97.73 335.97 90.54 77.25 94.05 335.97 97.73"/><path class="cls-34" d="M174.56,110.42a42.18,42.18,0,0,1-.94-9.11,69.13,69.13,0,0,1,.4-7.48c-.47.29-2.87.52-5.8.53s-5.34-.24-5.81-.53a66.67,66.67,0,0,1,.4,7.48,42.18,42.18,0,0,1-.94,9.11,13.91,13.91,0,0,0-.23,5.37c1.1,5,4.46,6,6.52,6h.11c2.42,0,5.42-1,6.52-6A13.91,13.91,0,0,0,174.56,110.42Z" transform="translate(0.12 0.28)"/><path class="cls-35" d="M174.43,93.88s0,0,0,0l-.1,0Z" transform="translate(0.12 0.28)"/><path class="cls-36" d="M174.52,93.73c0,.35-2.73.63-6.1.63s-6.1-.28-6.1-.63,2.73-.63,6.1-.63S174.52,93.38,174.52,93.73Z" transform="translate(0.12 0.28)"/><path class="cls-37" d="M174,93.71c0,.28-2.47.5-5.53.5s-5.53-.22-5.53-.5,2.48-.49,5.53-.49S174,93.44,174,93.71Z" transform="translate(0.12 0.28)"/><path class="cls-38" d="M174.51,93.69h0a0,0,0,0,1,0,0Z" transform="translate(0.12 0.28)"/><path class="cls-38" d="M162.33,93.69h0Z" transform="translate(0.12 0.28)"/><path class="cls-39" d="M174.22,94.46h0Z" transform="translate(0.12 0.28)"/><path class="cls-40" d="M173.66,95.92h0Z" transform="translate(0.12 0.28)"/><path class="cls-40" d="M163.24,95.92h0Z" transform="translate(0.12 0.28)"/><g class="cls-41"><path class="cls-34" d="M164,95.17h0Z" transform="translate(0.12 0.28)"/><path class="cls-34" d="M165.29,95.22h0Z" transform="translate(0.12 0.28)"/></g><path class="cls-42" d="M173.61,96.69s0,0,0,0l-.09,0Z" transform="translate(0.12 0.28)"/><path class="cls-43" d="M168.22,102.63c-2.59,0-4.69.21-4.69.47s2.1.47,4.69.47,4.68-.21,4.68-.47S170.8,102.63,168.22,102.63Z" transform="translate(0.12 0.28)"/><path class="cls-44" d="M173.72,111a36.26,36.26,0,0,1-.82-7.91h0c-.09.25-2.15.45-4.68.45s-4.6-.2-4.68-.45h0a36.26,36.26,0,0,1-.82,7.91,12,12,0,0,0-.2,4.65c1,4.31,3.87,5.17,5.66,5.17h.09c2.1,0,4.7-.86,5.66-5.17A12,12,0,0,0,173.72,111Z" transform="translate(0.12 0.28)"/><path class="cls-45" d="M168.13,121.75h0l-.31,0v16.1h.89V121.69A2.39,2.39,0,0,1,168.13,121.75Z" transform="translate(0.12 0.28)"/><path class="cls-46" d="M176.11,138.71h0c0-.56-3.53-1.3-7.89-1.3s-7.9.74-7.9,1.3h15.79Z" transform="translate(0.12 0.28)"/><path class="cls-47" d="M287.63,64.08a.48.48,0,0,0-.48.48.49.49,0,1,0,1,0A.48.48,0,0,0,287.63,64.08Z" transform="translate(0.12 0.28)"/><path class="cls-47" d="M240.58,62.19a.29.29,0,1,0-.29-.29A.29.29,0,0,0,240.58,62.19Z" transform="translate(0.12 0.28)"/><path class="cls-47" d="M252.55,90.82a.28.28,0,0,0,.29-.28.29.29,0,0,0-.58,0A.28.28,0,0,0,252.55,90.82Z" transform="translate(0.12 0.28)"/><path class="cls-47" d="M310.8,78.23a.29.29,0,1,0,.29.29A.29.29,0,0,0,310.8,78.23Z" transform="translate(0.12 0.28)"/><path class="cls-47" d="M328,41.78a.29.29,0,1,0-.28-.29A.29.29,0,0,0,328,41.78Z" transform="translate(0.12 0.28)"/><path class="cls-48" d="M326.27,62.3a.49.49,0,1,0,.49.48A.49.49,0,0,0,326.27,62.3Z" transform="translate(0.12 0.28)"/><path class="cls-49" d="M311.19,60.46a.74.74,0,1,0,0,1.48.74.74,0,1,0,0-1.48Z" transform="translate(0.12 0.28)"/><path class="cls-50" d="M284.05,99.62a.74.74,0,1,0,.74.74A.74.74,0,0,0,284.05,99.62Z" transform="translate(0.12 0.28)"/><path class="cls-47" d="M332.17,58.33a.49.49,0,0,0,.49-.49.48.48,0,0,0-.49-.48.47.47,0,0,0-.48.48A.48.48,0,0,0,332.17,58.33Z" transform="translate(0.12 0.28)"/><path class="cls-48" d="M304.74,92.7a.49.49,0,0,0,0,1,.49.49,0,1,0,0-1Z" transform="translate(0.12 0.28)"/><path class="cls-47" d="M280.56,93.61a.74.74,0,1,0,.74.74A.74.74,0,0,0,280.56,93.61Z" transform="translate(0.12 0.28)"/><path class="cls-49" d="M298.39,76.74a.75.75,0,1,0,.74.74A.74.74,0,0,0,298.39,76.74Z" transform="translate(0.12 0.28)"/><path class="cls-50" d="M335.76,22.79a.75.75,0,0,0,.74-.75.74.74,0,0,0-.74-.74A.75.75,0,0,0,335,22,.76.76,0,0,0,335.76,22.79Z" transform="translate(0.12 0.28)"/><path class="cls-47" d="M209.15,61a.49.49,0,1,0,.49.49A.49.49,0,0,0,209.15,61Z" transform="translate(0.12 0.28)"/><path class="cls-48" d="M205.52,56.35a.49.49,0,1,0,.48.49A.48.48,0,0,0,205.52,56.35Z" transform="translate(0.12 0.28)"/><path class="cls-49" d="M237.48,81.72a.75.75,0,0,0,.74-.75.74.74,0,0,0-.74-.74.75.75,0,0,0-.75.74A.76.76,0,0,0,237.48,81.72Z" transform="translate(0.12 0.28)"/><path class="cls-50" d="M327.81,95.87a.74.74,0,1,0,.74.74A.74.74,0,0,0,327.81,95.87Z" transform="translate(0.12 0.28)"/><path class="cls-47" d="M262.19,31.64a.49.49,0,0,0,0,1,.49.49,0,1,0,0-1Z" transform="translate(0.12 0.28)"/><path class="cls-48" d="M306.68,44.24a.49.49,0,1,0,.48.48A.48.48,0,0,0,306.68,44.24Z" transform="translate(0.12 0.28)"/><path class="cls-47" d="M282.5,45.15a.74.74,0,1,0,0,1.48.74.74,0,1,0,0-1.48Z" transform="translate(0.12 0.28)"/><path class="cls-49" d="M285.74,28a.75.75,0,0,0-.74.75.74.74,0,0,0,.74.74.75.75,0,0,0,.75-.74A.76.76,0,0,0,285.74,28Z" transform="translate(0.12 0.28)"/><path class="cls-50" d="M333.82,71.25a.74.74,0,0,0,.74-.74.74.74,0,1,0-1.48,0A.74.74,0,0,0,333.82,71.25Z" transform="translate(0.12 0.28)"/><path class="cls-47" d="M330.23,91.93a.47.47,0,0,0-.48.48.48.48,0,0,0,.48.49.49.49,0,0,0,.49-.49A.48.48,0,0,0,330.23,91.93Z" transform="translate(0.12 0.28)"/><path class="cls-48" d="M204.36,88a.49.49,0,1,0,.48.48A.49.49,0,0,0,204.36,88Z" transform="translate(0.12 0.28)"/><circle class="cls-47" cx="242.01" cy="32.54" r="0.74"/><path class="cls-49" d="M238.64,50.12a.74.74,0,0,0,.74-.74.74.74,0,1,0-1.48,0A.74.74,0,0,0,238.64,50.12Z" transform="translate(0.12 0.28)"/><path class="cls-50" d="M265.78,11a.74.74,0,1,0-.74-.74A.74.74,0,0,0,265.78,11Z" transform="translate(0.12 0.28)"/><path class="cls-47" d="M21.13,87a.28.28,0,0,0,.28-.28.29.29,0,1,0-.57,0A.28.28,0,0,0,21.13,87Z" transform="translate(0.12 0.28)"/><path class="cls-47" d="M96.53,38a.29.29,0,0,0,.29-.29.29.29,0,0,0-.58,0A.29.29,0,0,0,96.53,38Z" transform="translate(0.12 0.28)"/><path class="cls-48" d="M28.88,58a.47.47,0,0,0,.48-.48.48.48,0,0,0-.48-.49.49.49,0,0,0-.49.49A.48.48,0,0,0,28.88,58Z" transform="translate(0.12 0.28)"/><path class="cls-50" d="M77,35a.74.74,0,1,0,0-1.48A.74.74,0,1,0,77,35Z" transform="translate(0.12 0.28)"/><path class="cls-47" d="M100.75,54.55a.49.49,0,0,0,0-1,.49.49,0,1,0,0,1Z" transform="translate(0.12 0.28)"/><path class="cls-47" d="M80.44,41a.74.74,0,1,0-.74-.74A.74.74,0,0,0,80.44,41Z" transform="translate(0.12 0.28)"/><circle class="cls-50" cx="104.46" cy="18.55" r="0.74"/><circle class="cls-47" cx="29.73" cy="74.12" r="0.48"/><path class="cls-50" d="M33.19,38.78a.74.74,0,1,0-.74-.74A.74.74,0,0,0,33.19,38.78Z" transform="translate(0.12 0.28)"/><path class="cls-47" d="M98.81,103a.49.49,0,1,0-.48-.48A.48.48,0,0,0,98.81,103Z" transform="translate(0.12 0.28)"/><path class="cls-48" d="M40.57,10.68a.48.48,0,0,0,.48-.48.49.49,0,1,0-1,0A.48.48,0,0,0,40.57,10.68Z" transform="translate(0.12 0.28)"/><path class="cls-47" d="M64.75,9.78A.74.74,0,0,0,65.49,9,.74.74,0,1,0,64,9,.74.74,0,0,0,64.75,9.78Z" transform="translate(0.12 0.28)"/><path class="cls-49" d="M61.5,26.9a.74.74,0,1,0-.74-.74A.74.74,0,0,0,61.5,26.9Z" transform="translate(0.12 0.28)"/><path class="cls-50" d="M102.4,67.47a.74.74,0,1,0,0-1.48.74.74,0,1,0,0,1.48Z" transform="translate(0.12 0.28)"/><path class="cls-47" d="M30.77,42.72a.47.47,0,0,0,.48-.48.48.48,0,0,0-.48-.49.49.49,0,0,0-.49.49A.48.48,0,0,0,30.77,42.72Z" transform="translate(0.12 0.28)"/><path class="cls-50" d="M34.36,7.18a.74.74,0,1,0,0-1.48.74.74,0,1,0,0,1.48Z" transform="translate(0.12 0.28)"/><path class="cls-47" d="M138.36,63.67a.48.48,0,0,1-.34-.59.48.48,0,1,1,.93.25A.48.48,0,0,1,138.36,63.67Z" transform="translate(0.12 0.28)"/><path class="cls-47" d="M218.51,53.51a.29.29,0,0,1,.21.35.29.29,0,0,1-.36.2.28.28,0,0,1-.2-.35A.29.29,0,0,1,218.51,53.51Z" transform="translate(0.12 0.28)"/><path class="cls-47" d="M184.65,93a.28.28,0,0,1-.21-.35.29.29,0,0,1,.36-.2.29.29,0,1,1-.15.55Z" transform="translate(0.12 0.28)"/><path class="cls-47" d="M164.38,55.91a.28.28,0,0,1-.21-.35.29.29,0,0,1,.36-.2.29.29,0,1,1-.15.55Z" transform="translate(0.12 0.28)"/><path class="cls-47" d="M124.3,26.25a.28.28,0,0,1-.2-.35.29.29,0,0,1,.35-.2.29.29,0,0,1,.21.35A.29.29,0,0,1,124.3,26.25Z" transform="translate(0.12 0.28)"/><path class="cls-48" d="M184.59,62.88a.49.49,0,0,1,.25-.94.49.49,0,0,1-.25.94Z" transform="translate(0.12 0.28)"/><path class="cls-49" d="M160.2,73.19a.74.74,0,0,1,.38-1.43.74.74,0,1,1-.38,1.43Z" transform="translate(0.12 0.28)"/><path class="cls-50" d="M144,28.4a.74.74,0,1,1,.91-.53A.75.75,0,0,1,144,28.4Z" transform="translate(0.12 0.28)"/><path class="cls-47" d="M116,41.17a.48.48,0,0,1-.34-.59.49.49,0,0,1,.59-.35.5.5,0,0,1,.35.6A.49.49,0,0,1,116,41.17Z" transform="translate(0.12 0.28)"/><path class="cls-48" d="M162.22,40.38a.5.5,0,0,1-.34-.6.49.49,0,0,1,.94.25A.49.49,0,0,1,162.22,40.38Z" transform="translate(0.12 0.28)"/><path class="cls-47" d="M139.08,33.31a.74.74,0,1,1,.91-.53A.74.74,0,0,1,139.08,33.31Z" transform="translate(0.12 0.28)"/><path class="cls-49" d="M152,54.18a.74.74,0,0,1-.52-.91.74.74,0,0,1,1.43.38A.74.74,0,0,1,152,54.18Z" transform="translate(0.12 0.28)"/><path class="cls-50" d="M121.62,5.9A.74.74,0,0,1,122,4.46a.74.74,0,1,1-.38,1.44Z" transform="translate(0.12 0.28)"/><path class="cls-47" d="M146.45,86.76a.48.48,0,0,1-.35-.59.49.49,0,1,1,.94.24A.48.48,0,0,1,146.45,86.76Z" transform="translate(0.12 0.28)"/><path class="cls-48" d="M201.6,33a.48.48,0,0,1,.35.59.49.49,0,1,1-.35-.59Z" transform="translate(0.12 0.28)"/><path class="cls-49" d="M220.51,33.83a.74.74,0,0,1-.38,1.44.74.74,0,0,1-.53-.91A.76.76,0,0,1,220.51,33.83Z" transform="translate(0.12 0.28)"/><path class="cls-50" d="M185.33,43.22a.75.75,0,1,1,.91-.53A.74.74,0,0,1,185.33,43.22Z" transform="translate(0.12 0.28)"/><path class="cls-47" d="M105.46,88.52a.5.5,0,0,1-.34-.6.48.48,0,0,1,.59-.34.48.48,0,0,1,.35.59A.5.5,0,0,1,105.46,88.52Z" transform="translate(0.12 0.28)"/><path class="cls-48" d="M132.75,65.05a.49.49,0,1,1,.25-.94.49.49,0,0,1-.25.94Z" transform="translate(0.12 0.28)"/><path class="cls-47" d="M128.55,80.66a.74.74,0,1,1,.91-.53A.75.75,0,0,1,128.55,80.66Z" transform="translate(0.12 0.28)"/><path class="cls-49" d="M127.31,98a.74.74,0,0,1-.53-.91.74.74,0,1,1,1.43.38A.74.74,0,0,1,127.31,98Z" transform="translate(0.12 0.28)"/><path class="cls-50" d="M111.09,53.24a.74.74,0,0,1,.38-1.43.74.74,0,1,1-.38,1.43Z" transform="translate(0.12 0.28)"/><path class="cls-47" d="M186.67,47.65a.49.49,0,1,1,.59-.34A.49.49,0,0,1,186.67,47.65Z" transform="translate(0.12 0.28)"/><path class="cls-48" d="M232.9,46.86a.49.49,0,0,1-.34-.6.48.48,0,1,1,.93.25A.49.49,0,0,1,232.9,46.86Z" transform="translate(0.12 0.28)"/><path class="cls-47" d="M185.34,28.62a.75.75,0,0,1-.52-.91.74.74,0,1,1,1.43.38A.75.75,0,0,1,185.34,28.62Z" transform="translate(0.12 0.28)"/><path class="cls-49" d="M213.55,64.68a.74.74,0,1,1-.38,1.43.74.74,0,1,1,.38-1.43Z" transform="translate(0.12 0.28)"/><path class="cls-50" d="M192.3,12.38a.75.75,0,0,1-.53-.91.74.74,0,1,1,.53.91Z" transform="translate(0.12 0.28)"/><path class="cls-47" d="M99.71,43.5a.29.29,0,0,1,0-.58.29.29,0,0,1,0,.58Z" transform="translate(0.12 0.28)"/><path class="cls-47" d="M87.74,72.13a.28.28,0,0,1-.29-.28.29.29,0,0,1,.29-.29.28.28,0,0,1,.28.29A.27.27,0,0,1,87.74,72.13Z" transform="translate(0.12 0.28)"/><path class="cls-47" d="M12.33,23.09a.29.29,0,1,1,.29-.29A.29.29,0,0,1,12.33,23.09Z" transform="translate(0.12 0.28)"/><path class="cls-48" d="M14,43.61a.49.49,0,0,1,0,1,.49.49,0,1,1,0-1Z" transform="translate(0.12 0.28)"/><circle class="cls-50" cx="56.36" cy="81.95" r="0.74"/><path class="cls-47" d="M8.11,39.64a.49.49,0,0,1-.48-.49.49.49,0,0,1,1,0A.49.49,0,0,1,8.11,39.64Z" transform="translate(0.12 0.28)"/><path class="cls-48" d="M35.54,74a.49.49,0,1,1,0,1,.49.49,0,0,1,0-1Z" transform="translate(0.12 0.28)"/><path class="cls-47" d="M59.73,74.92a.74.74,0,1,1,0,1.48.74.74,0,1,1,0-1.48Z" transform="translate(0.12 0.28)"/><path class="cls-50" d="M4.53,4.1a.76.76,0,0,1-.75-.75.75.75,0,0,1,.75-.74.74.74,0,0,1,.74.74A.75.75,0,0,1,4.53,4.1Z" transform="translate(0.12 0.28)"/><path class="cls-47" d="M131.13,42.28a.49.49,0,1,1-.48.49A.48.48,0,0,1,131.13,42.28Z" transform="translate(0.12 0.28)"/><circle class="cls-48" cx="134.89" cy="38.43" r="0.48"/><path class="cls-49" d="M102.81,63a.75.75,0,0,1-.74-.75.74.74,0,1,1,1.48,0A.75.75,0,0,1,102.81,63Z" transform="translate(0.12 0.28)"/><path class="cls-50" d="M12.48,77.18a.74.74,0,1,1-.75.74A.74.74,0,0,1,12.48,77.18Z" transform="translate(0.12 0.28)"/><path class="cls-47" d="M78.09,13a.49.49,0,1,1,0,1,.49.49,0,0,1,0-1Z" transform="translate(0.12 0.28)"/><path class="cls-48" d="M33.6,25.55a.49.49,0,1,1-.48.48A.49.49,0,0,1,33.6,25.55Z" transform="translate(0.12 0.28)"/><path class="cls-47" d="M57.79,26.46a.74.74,0,1,1,0,1.48.74.74,0,1,1,0-1.48Z" transform="translate(0.12 0.28)"/><path class="cls-49" d="M54.54,9.33a.74.74,0,0,1,.74.74.74.74,0,1,1-1.48,0A.74.74,0,0,1,54.54,9.33Z" transform="translate(0.12 0.28)"/><path class="cls-50" d="M6.47,52.56a.75.75,0,0,1-.75-.74.76.76,0,0,1,.75-.75.75.75,0,0,1,.74.75A.74.74,0,0,1,6.47,52.56Z" transform="translate(0.12 0.28)"/><path class="cls-47" d="M10.05,73.24a.48.48,0,0,1,.49.48.49.49,0,0,1-.49.49.48.48,0,0,1-.48-.49A.47.47,0,0,1,10.05,73.24Z" transform="translate(0.12 0.28)"/><path class="cls-48" d="M135.93,69.26a.49.49,0,0,1,0,1,.49.49,0,1,1,0-1Z" transform="translate(0.12 0.28)"/><path class="cls-47" d="M98.4,14.31a.75.75,0,0,1-.74-.75.74.74,0,0,1,1.48,0A.75.75,0,0,1,98.4,14.31Z" transform="translate(0.12 0.28)"/><path class="cls-49" d="M101.65,31.43a.75.75,0,0,1-.75-.74.75.75,0,1,1,1.49,0A.74.74,0,0,1,101.65,31.43Z" transform="translate(0.12 0.28)"/><path class="cls-47" d="M319.16,68.35a.28.28,0,0,1-.29-.28.29.29,0,0,1,.58,0A.28.28,0,0,1,319.16,68.35Z" transform="translate(0.12 0.28)"/><path class="cls-47" d="M243.75,19.31a.29.29,0,0,1-.29-.29.29.29,0,0,1,.58,0A.29.29,0,0,1,243.75,19.31Z" transform="translate(0.12 0.28)"/><path class="cls-48" d="M311.4,39.28a.48.48,0,0,1-.48-.48.49.49,0,1,1,1,0A.48.48,0,0,1,311.4,39.28Z" transform="translate(0.12 0.28)"/><path class="cls-50" d="M263.33,16.34a.74.74,0,1,1,.74-.74A.74.74,0,0,1,263.33,16.34Z" transform="translate(0.12 0.28)"/><path class="cls-47" d="M239.54,35.86a.49.49,0,1,1,.48-.49A.49.49,0,0,1,239.54,35.86Z" transform="translate(0.12 0.28)"/><path class="cls-47" d="M259.84,22.35a.74.74,0,1,1,.74-.74A.74.74,0,0,1,259.84,22.35Z" transform="translate(0.12 0.28)"/><path class="cls-47" d="M310.68,55.63a.49.49,0,1,1,0-1,.49.49,0,0,1,0,1Z" transform="translate(0.12 0.28)"/><path class="cls-50" d="M307.09,20.09a.74.74,0,1,1,.74-.74A.74.74,0,0,1,307.09,20.09Z" transform="translate(0.12 0.28)"/><path class="cls-47" d="M241.47,84.32a.49.49,0,1,1,.49-.48A.49.49,0,0,1,241.47,84.32Z" transform="translate(0.12 0.28)"/><path class="cls-49" d="M278.78,8.21a.74.74,0,1,1,.74-.74A.74.74,0,0,1,278.78,8.21Z" transform="translate(0.12 0.28)"/><circle class="cls-50" cx="238.01" cy="48.32" r="0.74"/><path class="cls-47" d="M309.52,24a.48.48,0,0,1-.49-.48.49.49,0,1,1,1,0A.48.48,0,0,1,309.52,24Z" transform="translate(0.12 0.28)"/><path class="cls-47" d="M201.92,45a.48.48,0,0,0,.35-.59.49.49,0,1,0-.94.25A.49.49,0,0,0,201.92,45Z" transform="translate(0.12 0.28)"/><path class="cls-47" d="M121.77,34.82a.29.29,0,0,0-.2.35.28.28,0,0,0,.35.2.29.29,0,0,0,.21-.35A.3.3,0,0,0,121.77,34.82Z" transform="translate(0.12 0.28)"/><path class="cls-47" d="M155.64,74.27a.28.28,0,0,0,.2-.35.29.29,0,0,0-.35-.2.29.29,0,0,0-.21.35A.3.3,0,0,0,155.64,74.27Z" transform="translate(0.12 0.28)"/><path class="cls-47" d="M175.91,37.22a.28.28,0,0,0,.2-.35.29.29,0,0,0-.35-.2.28.28,0,0,0-.2.35A.28.28,0,0,0,175.91,37.22Z" transform="translate(0.12 0.28)"/><path class="cls-47" d="M216,7.56a.29.29,0,0,0,.21-.35.3.3,0,0,0-.36-.2.29.29,0,1,0,.15.55Z" transform="translate(0.12 0.28)"/><path class="cls-48" d="M155.69,44.19a.5.5,0,0,0,.35-.6.49.49,0,1,0-.35.6Z" transform="translate(0.12 0.28)"/><path class="cls-49" d="M180.08,54.5a.74.74,0,1,0-.91-.52A.74.74,0,0,0,180.08,54.5Z" transform="translate(0.12 0.28)"/><path class="cls-50" d="M196.29,9.71a.74.74,0,1,0-.9-.53A.74.74,0,0,0,196.29,9.71Z" transform="translate(0.12 0.28)"/><path class="cls-47" d="M224.29,22.48a.49.49,0,0,0,.35-.59.5.5,0,0,0-.6-.35.49.49,0,0,0,.25.94Z" transform="translate(0.12 0.28)"/><path class="cls-48" d="M178.06,21.69a.49.49,0,0,0,.34-.6.48.48,0,1,0-.93.25A.49.49,0,0,0,178.06,21.69Z" transform="translate(0.12 0.28)"/><path class="cls-47" d="M201.21,14.62a.74.74,0,0,0-.38-1.43.74.74,0,1,0,.38,1.43Z" transform="translate(0.12 0.28)"/><path class="cls-49" d="M188.28,35.49a.75.75,0,0,0,.53-.91.74.74,0,1,0-.53.91Z" transform="translate(0.12 0.28)"/><path class="cls-47" d="M193.84,68.07a.48.48,0,0,0,.34-.59.48.48,0,0,0-.59-.35.49.49,0,1,0,.25.94Z" transform="translate(0.12 0.28)"/><path class="cls-48" d="M138.68,14.26a.49.49,0,0,0-.35.59.5.5,0,0,0,.6.35.49.49,0,0,0,.34-.6A.48.48,0,0,0,138.68,14.26Z" transform="translate(0.12 0.28)"/><path class="cls-49" d="M119.77,15.14a.75.75,0,0,0-.52.91.74.74,0,0,0,.9.53.74.74,0,1,0-.38-1.44Z" transform="translate(0.12 0.28)"/><path class="cls-50" d="M155,24.53A.74.74,0,1,0,154,24,.75.75,0,0,0,155,24.53Z" transform="translate(0.12 0.28)"/><path class="cls-47" d="M234.82,69.83a.49.49,0,0,0,.34-.6.48.48,0,1,0-.93.25A.49.49,0,0,0,234.82,69.83Z" transform="translate(0.12 0.28)"/><path class="cls-48" d="M207.54,46.36a.49.49,0,0,0,.34-.59.49.49,0,1,0-.94.24A.49.49,0,0,0,207.54,46.36Z" transform="translate(0.12 0.28)"/><path class="cls-47" d="M211.73,62a.74.74,0,1,0-.9-.53A.74.74,0,0,0,211.73,62Z" transform="translate(0.12 0.28)"/><path class="cls-49" d="M213,79.35a.74.74,0,0,0-.38-1.44.74.74,0,1,0,.38,1.44Z" transform="translate(0.12 0.28)"/><path class="cls-50" d="M229.19,34.55a.74.74,0,1,0-.91-.53A.74.74,0,0,0,229.19,34.55Z" transform="translate(0.12 0.28)"/><path class="cls-47" d="M153.62,29a.48.48,0,0,0,.34-.59.48.48,0,0,0-.59-.35.49.49,0,1,0,.25.94Z" transform="translate(0.12 0.28)"/><path class="cls-48" d="M107.38,28.17a.49.49,0,0,0,.35-.6.48.48,0,0,0-.59-.34.48.48,0,0,0-.35.59A.5.5,0,0,0,107.38,28.17Z" transform="translate(0.12 0.28)"/><path class="cls-47" d="M154.94,9.92a.74.74,0,0,0,.53-.9.74.74,0,1,0-.53.9Z" transform="translate(0.12 0.28)"/><path class="cls-49" d="M126.74,46a.74.74,0,1,0,.38,1.43.74.74,0,0,0-.38-1.43Z" transform="translate(0.12 0.28)"/><g id="cloud" class="cls-51"><path class="cls-34" d="M335.84,44c-2.13,2.49-7,1.57-8.38-.19A8.54,8.54,0,0,1,326,35.56a4.63,4.63,0,0,1-2.48-.8,4.61,4.61,0,0,1-.87.84,3.78,3.78,0,0,1,.21,1,3.57,3.57,0,0,1-3.41,3.71,3.5,3.5,0,0,1-2-.54,3.56,3.56,0,0,1-2.22,1.06,5.42,5.42,0,0,1-.55,2.35,4,4,0,0,1-6.76,3.67,5.52,5.52,0,0,1-5.8,2.44,7.06,7.06,0,0,1-9.65-10.22,2.78,2.78,0,0,1-.58.05,3.53,3.53,0,0,1-2.4-1,7.11,7.11,0,0,1-1.15,1,1.34,1.34,0,0,1,0,.35A4,4,0,0,1,281.22,42a4,4,0,1,1-7.92.62,4,4,0,0,1-2.19-.86A4,4,0,0,1,269.64,39h-.12a4.74,4.74,0,0,1-4.29-6.67,4,4,0,0,1-.92.12,3.65,3.65,0,0,1-3.18-2,5.53,5.53,0,0,1-7.57-5.25,5.56,5.56,0,0,1,4.58-5.37,4.88,4.88,0,0,1,1-3.4l.13-.15a5,5,0,0,1-.82-4,5.88,5.88,0,0,1-1.08-.57,5.91,5.91,0,0,1-8.77-5.14,6,6,0,0,1-4.51,1.3,5.92,5.92,0,0,1-.33,3.22,5.92,5.92,0,0,1-9.06,7,6.28,6.28,0,0,1-.54-.47,5.92,5.92,0,0,1-10.48-3.65c.14-.19.26-.37.38-.55a4,4,0,0,1-2.7-1.15,5.49,5.49,0,0,1-5.79,2.44,6.79,6.79,0,0,1-1.55.91A7.07,7.07,0,0,1,206,4.58a3.68,3.68,0,0,1-.58,0,3.63,3.63,0,0,1-2.41-1,6.55,6.55,0,0,1-1.13,1c0,.12,0,.23,0,.35a4,4,0,0,1-4.09,4,4,4,0,0,1-3-1.52,4,4,0,0,1-6.44,3.68,4,4,0,0,1-1.48-3,4,4,0,0,1-3.67-3.55H183c-2.64,0-4.75-1.64-4.7-4.28,0,0,0-.06,0-.09L335.84,0Z" transform="translate(0.12 0.28)"/></g><g id="_Group_" data-name="&lt;Group&gt;"><path class="cls-34" d="M70.08,48.06a14.13,14.13,0,0,0-4.82-1.12s3.58,1,4.81,3.15c1.24-2.2,4.82-3.15,4.82-3.15A14.06,14.06,0,0,0,70.08,48.06Z" transform="translate(0.12 0.28)"/><path class="cls-34" d="M224.05,43.38a14.33,14.33,0,0,0-4.83-1.13s3.59,1,4.82,3.15c1.23-2.19,4.81-3.15,4.81-3.15A14.17,14.17,0,0,0,224.05,43.38Z" transform="translate(0.12 0.28)"/><path class="cls-34" d="M79.72,38.68a14.22,14.22,0,0,0-4.83-1.13s3.59,1,4.82,3.15c1.23-2.2,4.81-3.15,4.81-3.15A13.86,13.86,0,0,0,79.72,38.68Z" transform="translate(0.12 0.28)"/><path class="cls-34" d="M126.06,82.37a14.33,14.33,0,0,0-4.83-1.13s3.59,1,4.82,3.15c1.23-2.2,4.81-3.15,4.81-3.15A14.17,14.17,0,0,0,126.06,82.37Z" transform="translate(0.12 0.28)"/><path class="cls-34" d="M100,44.57a13.84,13.84,0,0,0-4.82-1.13s3.58,1,4.81,3.15c1.23-2.2,4.82-3.15,4.82-3.15A13.76,13.76,0,0,0,100,44.57Z" transform="translate(0.12 0.28)"/><path class="cls-34" d="M167.24,63.65a14.33,14.33,0,0,0-4.83-1.13s3.59,1,4.82,3.15c1.23-2.19,4.81-3.15,4.81-3.15A14.17,14.17,0,0,0,167.24,63.65Z" transform="translate(0.12 0.28)"/><path class="cls-34" d="M202.22,82a14.46,14.46,0,0,0-4.83-1.13s3.59,1,4.82,3.15c1.23-2.19,4.81-3.15,4.81-3.15A14.1,14.1,0,0,0,202.22,82Z" transform="translate(0.12 0.28)"/></g></g></g></svg>